<mxfile host="65bd71144e">
    <diagram id="HQk8QnTrrSELDRjJr_CR" name="ページ1">
        <mxGraphModel dx="1081" dy="505" grid="1" gridSize="10" guides="1" tooltips="1" connect="1" arrows="1" fold="1" page="1" pageScale="1" pageWidth="827" pageHeight="1169" background="none" math="0" shadow="0">
            <root>
                <mxCell id="0"/>
                <mxCell id="1" parent="0"/>
                <mxCell id="21" value="AWS Cloud" style="points=[[0,0],[0.25,0],[0.5,0],[0.75,0],[1,0],[1,0.25],[1,0.5],[1,0.75],[1,1],[0.75,1],[0.5,1],[0.25,1],[0,1],[0,0.75],[0,0.5],[0,0.25]];outlineConnect=0;gradientColor=none;html=1;whiteSpace=wrap;fontSize=12;fontStyle=0;container=1;pointerEvents=0;collapsible=0;recursiveResize=0;shape=mxgraph.aws4.group;grIcon=mxgraph.aws4.group_aws_cloud_alt;strokeColor=#232F3E;fillColor=none;verticalAlign=top;align=left;spacingLeft=30;fontColor=#232F3E;dashed=0;" parent="1" vertex="1">
                    <mxGeometry x="130" y="139.5" width="630" height="730.5" as="geometry"/>
                </mxCell>
                <mxCell id="44" value="Region" style="shape=mxgraph.ibm.box;prType=region;fontStyle=0;verticalAlign=top;align=left;spacingLeft=32;spacingTop=4;fillColor=none;rounded=0;whiteSpace=wrap;html=1;strokeColor=#919191;strokeWidth=2;dashed=0;container=1;spacing=-4;collapsible=0;expand=0;recursiveResize=0;fontSize=12;" parent="21" vertex="1">
                    <mxGeometry x="20" y="101" width="565" height="599" as="geometry"/>
                </mxCell>
                <mxCell id="54" value="" style="group" parent="44" vertex="1" connectable="0">
                    <mxGeometry x="20" y="429.5" width="60" height="60" as="geometry"/>
                </mxCell>
                <mxCell id="24" value="" style="sketch=0;points=[[0,0,0],[0.25,0,0],[0.5,0,0],[0.75,0,0],[1,0,0],[0,1,0],[0.25,1,0],[0.5,1,0],[0.75,1,0],[1,1,0],[0,0.25,0],[0,0.5,0],[0,0.75,0],[1,0.25,0],[1,0.5,0],[1,0.75,0]];outlineConnect=0;fontColor=#232F3E;gradientColor=#60A337;gradientDirection=north;fillColor=#277116;strokeColor=#ffffff;dashed=0;verticalLabelPosition=bottom;verticalAlign=top;align=center;html=1;fontSize=12;fontStyle=0;aspect=fixed;shape=mxgraph.aws4.resourceIcon;resIcon=mxgraph.aws4.s3;" parent="54" vertex="1">
                    <mxGeometry x="4.285714285714286" width="51.42857142857142" height="51.42857142857142" as="geometry"/>
                </mxCell>
                <mxCell id="25" value="&lt;font style=&quot;font-size: 14px;&quot;&gt;S3&lt;/font&gt;" style="text;strokeColor=none;fillColor=none;html=1;fontSize=24;fontStyle=1;verticalAlign=middle;align=center;" parent="54" vertex="1">
                    <mxGeometry y="51.42857142857142" width="60" height="8.571428571428571" as="geometry"/>
                </mxCell>
                <mxCell id="64" value="Amazon ECS" style="sketch=0;outlineConnect=0;fontColor=#232F3E;gradientColor=none;strokeColor=#ffffff;fillColor=#232F3E;dashed=0;verticalLabelPosition=middle;verticalAlign=bottom;align=center;html=1;whiteSpace=wrap;fontSize=10;fontStyle=1;spacing=3;shape=mxgraph.aws4.productIcon;prIcon=mxgraph.aws4.ecs;" parent="44" vertex="1">
                    <mxGeometry x="225" y="350" width="60" height="89" as="geometry"/>
                </mxCell>
                <mxCell id="3" value="VPC" style="points=[[0,0],[0.25,0],[0.5,0],[0.75,0],[1,0],[1,0.25],[1,0.5],[1,0.75],[1,1],[0.75,1],[0.5,1],[0.25,1],[0,1],[0,0.75],[0,0.5],[0,0.25]];outlineConnect=0;gradientColor=none;html=1;whiteSpace=wrap;fontSize=12;fontStyle=0;container=1;pointerEvents=0;collapsible=0;recursiveResize=0;shape=mxgraph.aws4.group;grIcon=mxgraph.aws4.group_vpc;strokeColor=#248814;fillColor=none;verticalAlign=top;align=left;spacingLeft=30;fontColor=#AAB7B8;dashed=0;" parent="44" vertex="1">
                    <mxGeometry x="110" y="49.5" width="420" height="520" as="geometry"/>
                </mxCell>
                <mxCell id="12" value="Public subnet" style="points=[[0,0],[0.25,0],[0.5,0],[0.75,0],[1,0],[1,0.25],[1,0.5],[1,0.75],[1,1],[0.75,1],[0.5,1],[0.25,1],[0,1],[0,0.75],[0,0.5],[0,0.25]];outlineConnect=0;gradientColor=none;html=1;whiteSpace=wrap;fontSize=12;fontStyle=0;container=1;pointerEvents=0;collapsible=0;recursiveResize=0;shape=mxgraph.aws4.group;grIcon=mxgraph.aws4.group_security_group;grStroke=0;strokeColor=#248814;fillColor=#E9F3E6;verticalAlign=top;align=left;spacingLeft=30;fontColor=#248814;dashed=0;" parent="3" vertex="1">
                    <mxGeometry x="60" y="80" width="320" height="150" as="geometry"/>
                </mxCell>
                <mxCell id="100" value="&lt;font style=&quot;&quot;&gt;&lt;font style=&quot;font-size: 12px;&quot;&gt;(NAT Instance)&lt;/font&gt;&lt;br&gt;&lt;/font&gt;" style="text;strokeColor=none;fillColor=none;html=1;fontSize=24;fontStyle=1;verticalAlign=middle;align=center;" parent="12" vertex="1">
                    <mxGeometry x="175" y="70" width="110" height="10" as="geometry"/>
                </mxCell>
                <mxCell id="7" value="Private subnet" style="points=[[0,0],[0.25,0],[0.5,0],[0.75,0],[1,0],[1,0.25],[1,0.5],[1,0.75],[1,1],[0.75,1],[0.5,1],[0.25,1],[0,1],[0,0.75],[0,0.5],[0,0.25]];outlineConnect=0;gradientColor=none;html=1;whiteSpace=wrap;fontSize=12;fontStyle=0;container=1;pointerEvents=0;collapsible=0;recursiveResize=0;shape=mxgraph.aws4.group;grIcon=mxgraph.aws4.group_security_group;grStroke=0;strokeColor=#147EBA;fillColor=#E6F2F8;verticalAlign=top;align=left;spacingLeft=30;fontColor=#147EBA;dashed=0;" parent="3" vertex="1">
                    <mxGeometry x="60" y="260" width="320" height="220" as="geometry"/>
                </mxCell>
                <mxCell id="94" value="&lt;font style=&quot;&quot;&gt;&lt;font style=&quot;font-size: 12px;&quot;&gt;Rails App&lt;/font&gt;&lt;br&gt;&lt;/font&gt;" style="text;strokeColor=none;fillColor=none;html=1;fontSize=24;fontStyle=1;verticalAlign=middle;align=center;" parent="7" vertex="1">
                    <mxGeometry x="195" y="100" width="70" height="10" as="geometry"/>
                </mxCell>
                <mxCell id="86" value="" style="endArrow=classic;startArrow=classic;html=1;fontSize=12;" parent="3" edge="1" source="99">
                    <mxGeometry width="50" height="50" relative="1" as="geometry">
                        <mxPoint x="209.74999999999994" y="80" as="sourcePoint"/>
                        <mxPoint x="210.25" y="50" as="targetPoint"/>
                    </mxGeometry>
                </mxCell>
                <mxCell id="83" value="" style="endArrow=classic;startArrow=classic;html=1;fontSize=12;" parent="3" edge="1">
                    <mxGeometry width="50" height="50" relative="1" as="geometry">
                        <mxPoint x="-30" y="400" as="sourcePoint"/>
                        <mxPoint x="153.9000000000001" y="400" as="targetPoint"/>
                    </mxGeometry>
                </mxCell>
                <mxCell id="91" style="shape=image;editableCssRules=.*;image=data:image/svg+xml,PHN2ZyB2aWV3Qm94PSIwIDAgMjQgMjQiIHhtbG5zPSJodHRwOi8vd3d3LnczLm9yZy8yMDAwL3N2ZyI+PHN0eWxlPip7ZmlsbDojRDMwMDAxfTwvc3R5bGU+PHBhdGggZD0iTS43NDEgMTkuMzY1aDguMzZzLTEuNTk4LTcuMjkxIDMuNjkzLTEwLjI0M2wuMTM0LS4wNjZjMS4yODYtLjYzNyA0LjkwNy0yLjQzMSAxMC43MDIgMS44NTQuMTktLjE1OS4zNy0uMjg2LjM3LS4yODZzLTUuNTAzLTUuNDkyLTExLjYzLTQuODc4Yy0zLjA3OS4yNzUtNi44NjcgMy4wNzktOS4wOSA2Ljc4M0MxLjA1OCAxNi4yMzMuNzQxIDE5LjM2NS43NDEgMTkuMzY1Wm04LjgwNC0uNzgzYTEwLjY4MiAxMC42ODIgMCAwIDEtLjEyNy0xLjMzM2wxLjE0My40MTJjLjA2My40OTguMTU5Ljk2My4yNTQgMS4zNzZsLTEuMjctLjQ1NVptLTcuNzk5LTQuMzE3TC41MjkgMTMuODJjLS4yMDEuNDU1LS40MjMuOTg0LS41MjkgMS4yN2wxLjIxNy40NDRjLjEzNy0uMzU5LjM2LS44NzguNTI5LTEuMjY5Wm03LjgzMS4yOTYuODU3LjY3N2MuMDQyLS40MTMuMTE2LS44MjUuMjIyLTEuMjM4bC0uNzYyLS42MDNjLS4xMzcuMzkxLS4yMzMuNzgzLS4zMTcgMS4xNjRabTIuMDQyLTIuNjQ2LS41MDgtLjc2MmMuMTkxLS4yNDMuNDEzLS40ODYuNjU2LS43MDlsLjQ3Ni43MmE1Ljk1OCA1Ljk1OCAwIDAgMC0uNjI0Ljc1MVpNNC4xOSA4Ljg3OGwuNzUyLjY1NmMtLjI1NC4yNjUtLjQ5OC41NTEtLjcyLjgzNmwtLjgxNS0uNjk4Yy4yNDQtLjI2NS41MDgtLjUyOS43ODMtLjc5NFptOS43OTkgMS4wMjctLjI0My0uNzNjLjI2NS0uMTE3LjU3MS0uMjMzLjkzMS0uMzM5bC4yMzMuNjk4YTYuODIgNi44MiAwIDAgMC0uOTIxLjM3MVptMy4xMjItLjY1Ni4wNDItLjY2N2MuMzM5LjAyMS42ODguMDY0IDEuMDQ4LjEzOGwtLjA0Mi42NTZhNS44NTkgNS44NTkgMCAwIDAtMS4wNDgtLjEyN1pNOC45NDIgNi4zOTJsLS40NzYtLjczMWMtLjI2NS4xMzgtLjU0LjI4Ni0uODI2LjQ1NWwuNDg3Ljc0MWMuMjc1LS4xNjkuNTQtLjMyOC44MTUtLjQ2NVptOS4yMTctLjA1My4wNDItLjcwOWMtLjA5NS0uMDUzLS4zNi0uMTgtMS4wMjYtLjM3MWwtLjA0My42OTljLjM0OS4xMTYuNjg4LjI0MyAxLjAyNy4zODFaTTEzLjIzOCA1LjI4aC4xMDZsLS4yMTItLjY0NWMtLjMyOCAwLS42NjYuMDIxLTEuMDE2LjA2M2wuMjAxLjYyNWE4Ljg3IDguODcgMCAwIDEgLjkyMS0uMDQzWiIvPjwvc3ZnPg==;fontSize=12;" parent="44" vertex="1">
                    <mxGeometry x="345" y="369.5" width="50" height="63.5" as="geometry"/>
                </mxCell>
                <mxCell id="93" value="" style="rounded=1;arcSize=10;dashed=1;strokeColor=#F59D56;fillColor=none;gradientColor=none;dashPattern=8 4;strokeWidth=2;fontSize=12;" parent="44" vertex="1">
                    <mxGeometry x="264" y="368.07" width="206" height="100" as="geometry"/>
                </mxCell>
                <mxCell id="98" value="&lt;font style=&quot;&quot;&gt;&lt;font style=&quot;font-size: 12px;&quot;&gt;(Docker Containers)&lt;/font&gt;&lt;br&gt;&lt;/font&gt;" style="text;strokeColor=none;fillColor=none;html=1;fontSize=24;fontStyle=1;verticalAlign=middle;align=center;" parent="44" vertex="1">
                    <mxGeometry x="350" y="439" width="70" height="10" as="geometry"/>
                </mxCell>
                <mxCell id="99" value="Amazon EC2" style="sketch=0;outlineConnect=0;fontColor=#232F3E;gradientColor=none;strokeColor=#ffffff;fillColor=#232F3E;dashed=0;verticalLabelPosition=middle;verticalAlign=bottom;align=center;html=1;whiteSpace=wrap;fontSize=10;fontStyle=1;spacing=3;shape=mxgraph.aws4.productIcon;prIcon=mxgraph.aws4.ec2;" parent="44" vertex="1">
                    <mxGeometry x="300" y="169.5" width="45" height="77.14" as="geometry"/>
                </mxCell>
                <mxCell id="6" value="Internet&#10;gateway" style="sketch=0;outlineConnect=0;fontColor=#232F3E;gradientColor=none;strokeColor=#232F3E;fillColor=#ffffff;dashed=0;verticalLabelPosition=bottom;verticalAlign=top;align=center;html=1;fontSize=12;fontStyle=0;aspect=fixed;shape=mxgraph.aws4.resourceIcon;resIcon=mxgraph.aws4.internet_gateway;" parent="44" vertex="1">
                    <mxGeometry x="300" y="19.5" width="40" height="40" as="geometry"/>
                </mxCell>
                <mxCell id="87" value="" style="endArrow=classic;startArrow=classic;html=1;fontSize=12;" parent="44" edge="1">
                    <mxGeometry width="50" height="50" relative="1" as="geometry">
                        <mxPoint x="325.40999999999997" y="324.5" as="sourcePoint"/>
                        <mxPoint x="325.1417283950616" y="271.5" as="targetPoint"/>
                    </mxGeometry>
                </mxCell>
                <mxCell id="101" value="Amazon EC2" style="sketch=0;outlineConnect=0;fontColor=#232F3E;gradientColor=none;strokeColor=#ffffff;fillColor=#232F3E;dashed=0;verticalLabelPosition=middle;verticalAlign=bottom;align=center;html=1;whiteSpace=wrap;fontSize=10;fontStyle=1;spacing=3;shape=mxgraph.aws4.productIcon;prIcon=mxgraph.aws4.ec2;" parent="44" vertex="1">
                    <mxGeometry x="285" y="379.5" width="45" height="77.14" as="geometry"/>
                </mxCell>
                <mxCell id="82" value="" style="endArrow=classic;startArrow=classic;html=1;fontSize=12;" parent="44" edge="1" target="93">
                    <mxGeometry width="50" height="50" relative="1" as="geometry">
                        <mxPoint x="-31.94999999999999" y="379.5" as="sourcePoint"/>
                        <mxPoint x="151.95" y="379.5" as="targetPoint"/>
                    </mxGeometry>
                </mxCell>
                <mxCell id="85" value="" style="endArrow=classic;startArrow=classic;html=1;fontSize=12;" parent="21" edge="1">
                    <mxGeometry width="50" height="50" relative="1" as="geometry">
                        <mxPoint x="340" y="40.5" as="sourcePoint"/>
                        <mxPoint x="409.18000000000006" y="40.5" as="targetPoint"/>
                    </mxGeometry>
                </mxCell>
                <mxCell id="90" value="" style="group" parent="21" vertex="1" connectable="0">
                    <mxGeometry x="414" y="12" width="70" height="68" as="geometry"/>
                </mxCell>
                <mxCell id="88" value="" style="sketch=0;points=[[0,0,0],[0.25,0,0],[0.5,0,0],[0.75,0,0],[1,0,0],[0,1,0],[0.25,1,0],[0.5,1,0],[0.75,1,0],[1,1,0],[0,0.25,0],[0,0.5,0],[0,0.75,0],[1,0.25,0],[1,0.5,0],[1,0.75,0]];outlineConnect=0;fontColor=#232F3E;gradientColor=#945DF2;gradientDirection=north;fillColor=#5A30B5;strokeColor=#ffffff;dashed=0;verticalLabelPosition=bottom;verticalAlign=top;align=center;html=1;fontSize=12;fontStyle=0;aspect=fixed;shape=mxgraph.aws4.resourceIcon;resIcon=mxgraph.aws4.route_53;" parent="90" vertex="1">
                    <mxGeometry x="6" width="58" height="58" as="geometry"/>
                </mxCell>
                <mxCell id="89" value="&lt;font style=&quot;font-size: 12px;&quot;&gt;Route53&lt;/font&gt;" style="text;strokeColor=none;fillColor=none;html=1;fontSize=24;fontStyle=1;verticalAlign=middle;align=center;" parent="90" vertex="1">
                    <mxGeometry y="58" width="70" height="10" as="geometry"/>
                </mxCell>
                <mxCell id="33" value="" style="sketch=0;aspect=fixed;html=1;points=[];align=center;image;fontSize=12;image=img/lib/mscae/Docker.svg;" parent="1" vertex="1">
                    <mxGeometry x="43.9" y="290" width="62.2" height="51" as="geometry"/>
                </mxCell>
                <mxCell id="55" value="" style="group" parent="1" vertex="1" connectable="0">
                    <mxGeometry x="40" y="450" width="70" height="62" as="geometry"/>
                </mxCell>
                <mxCell id="32" value="" style="verticalLabelPosition=bottom;html=1;verticalAlign=top;align=center;strokeColor=none;fillColor=#00BEF2;shape=mxgraph.azure.github_code;pointerEvents=1;fontSize=14;" parent="55" vertex="1">
                    <mxGeometry x="10" width="50" height="50" as="geometry"/>
                </mxCell>
                <mxCell id="39" value="&lt;font style=&quot;font-size: 12px;&quot;&gt;GitHub&lt;/font&gt;" style="text;strokeColor=none;fillColor=none;html=1;fontSize=24;fontStyle=1;verticalAlign=middle;align=center;" parent="55" vertex="1">
                    <mxGeometry y="52" width="70" height="10" as="geometry"/>
                </mxCell>
                <mxCell id="56" value="" style="group" parent="1" vertex="1" connectable="0">
                    <mxGeometry x="43.900000000000006" y="590" width="70" height="52" as="geometry"/>
                </mxCell>
                <mxCell id="36" style="shape=image;editableCssRules=.*;image=data:image/svg+xml,PHN2ZyB2aWV3Qm94PSIwIDAgMjQgMjQiIHhtbG5zPSJodHRwOi8vd3d3LnczLm9yZy8yMDAwL3N2ZyI+PHN0eWxlPip7ZmlsbDojMjA4OEZGfTwvc3R5bGU+PHBhdGggZD0iTTEwLjk4NCAxMy44MzZhLjUuNSAwIDAgMS0uMzUzLS4xNDZsLS43NDUtLjc0M2EuNS41IDAgMSAxIC43MDYtLjcwOGwuMzkyLjM5MSAxLjE4MS0xLjE4YS41LjUgMCAwIDEgLjcwOC43MDdsLTEuNTM1IDEuNTMzYS41MDQuNTA0IDAgMCAxLS4zNTQuMTQ2em05LjM1My0uMTQ3bDEuNTM0LTEuNTMyYS41LjUgMCAwIDAtLjcwNy0uNzA3bC0xLjE4MSAxLjE4LS4zOTItLjM5MWEuNS41IDAgMSAwLS43MDYuNzA4bC43NDYuNzQzYS40OTcuNDk3IDAgMCAwIC43MDYtLjAwMXpNNC41MjcgNy40NTJsMi41NTctMS41ODVBMSAxIDAgMCAwIDcuMDkgNC4xN0w0LjUzMyAyLjU2QTEgMSAwIDAgMCAzIDMuNDA2djMuMTk2YTEuMDAxIDEuMDAxIDAgMCAwIDEuNTI3Ljg1em0yLjAzLTIuNDM2TDQgNi42MDJWMy40MDZsMi41NTcgMS42MXpNMjQgMTIuNWMwIDEuOTMtMS41NyAzLjUtMy41IDMuNWEzLjUwMyAzLjUwMyAwIDAgMS0zLjQ2LTNoLTIuMDhhMy41MDMgMy41MDMgMCAwIDEtMy40NiAzIDMuNTAyIDMuNTAyIDAgMCAxLTMuNDYtM2gtLjU1OGMtLjk3MiAwLTEuODUtLjM5OS0yLjQ4Mi0xLjA0MlYxN2MwIDEuNjU0IDEuMzQ2IDMgMyAzaC4wNGMuMjQ0LTEuNjkzIDEuNy0zIDMuNDYtMyAxLjkzIDAgMy41IDEuNTcgMy41IDMuNVMxMy40MyAyNCAxMS41IDI0YTMuNTAyIDMuNTAyIDAgMCAxLTMuNDYtM0g4Yy0yLjIwNiAwLTQtMS43OTQtNC00VjkuODk5QTUuMDA4IDUuMDA4IDAgMCAxIDAgNWMwLTIuNzU3IDIuMjQzLTUgNS01czUgMi4yNDMgNSA1YTUuMDA1IDUuMDA1IDAgMCAxLTQuOTUyIDQuOTk4QTIuNDgyIDIuNDgyIDAgMCAwIDcuNDgyIDEyaC41NThjLjI0NC0xLjY5MyAxLjctMyAzLjQ2LTNhMy41MDIgMy41MDIgMCAwIDEgMy40NiAzaDIuMDhhMy41MDMgMy41MDMgMCAwIDEgMy40Ni0zYzEuOTMgMCAzLjUgMS41NyAzLjUgMy41em0tMTUgOGMwIDEuMzc4IDEuMTIyIDIuNSAyLjUgMi41czIuNS0xLjEyMiAyLjUtMi41LTEuMTIyLTIuNS0yLjUtMi41UzkgMTkuMTIyIDkgMjAuNXpNNSA5YzIuMjA2IDAgNC0xLjc5NCA0LTRTNy4yMDYgMSA1IDEgMSAyLjc5NCAxIDVzMS43OTQgNCA0IDR6bTkgMy41YzAtMS4zNzgtMS4xMjItMi41LTIuNS0yLjVTOSAxMS4xMjIgOSAxMi41czEuMTIyIDIuNSAyLjUgMi41IDIuNS0xLjEyMiAyLjUtMi41em05IDBjMC0xLjM3OC0xLjEyMi0yLjUtMi41LTIuNVMxOCAxMS4xMjIgMTggMTIuNXMxLjEyMiAyLjUgMi41IDIuNSAyLjUtMS4xMjIgMi41LTIuNXptLTEzIDhhLjUuNSAwIDEgMCAxIDAgLjUuNSAwIDAgMC0xIDB6bTIgMGEuNS41IDAgMSAwIDEgMCAuNS41IDAgMCAwLTEgMHptMTIgMGMwIDEuOTMtMS41NyAzLjUtMy41IDMuNWEzLjUwMyAzLjUwMyAwIDAgMS0zLjQ2LTMuMDAyYy0uMDA3LjAwMS0uMDEzLjAwNS0uMDIxLjAwNWwtLjUwNi4wMTdoLS4wMTdhLjUuNSAwIDAgMS0uMDE2LS45OTlsLjUwNi0uMDE3Yy4wMTgtLjAwMi4wMzUuMDA2LjA1Mi4wMDdBMy41MDMgMy41MDMgMCAwIDEgMjAuNSAxN2MxLjkzIDAgMy41IDEuNTcgMy41IDMuNXptLTEgMGMwLTEuMzc4LTEuMTIyLTIuNS0yLjUtMi41UzE4IDE5LjEyMiAxOCAyMC41czEuMTIyIDIuNSAyLjUgMi41IDIuNS0xLjEyMiAyLjUtMi41eiIvPjwvc3ZnPg==;fontSize=14;" parent="56" vertex="1">
                    <mxGeometry width="58.18" height="40" as="geometry"/>
                </mxCell>
                <mxCell id="41" value="&lt;font style=&quot;&quot;&gt;&lt;font style=&quot;font-size: 12px;&quot;&gt;GitHub Actions&lt;/font&gt;&lt;br&gt;&lt;/font&gt;" style="text;strokeColor=none;fillColor=none;html=1;fontSize=24;fontStyle=1;verticalAlign=middle;align=center;" parent="56" vertex="1">
                    <mxGeometry y="42" width="70" height="10" as="geometry"/>
                </mxCell>
                <mxCell id="59" value="" style="group" parent="1" vertex="1" connectable="0">
                    <mxGeometry x="40" y="139.5" width="70" height="69" as="geometry"/>
                </mxCell>
                <mxCell id="29" value="" style="points=[[0.35,0,0],[0.98,0.51,0],[1,0.71,0],[0.67,1,0],[0,0.795,0],[0,0.65,0]];verticalLabelPosition=bottom;sketch=0;html=1;verticalAlign=top;aspect=fixed;align=center;pointerEvents=1;shape=mxgraph.cisco19.user;fillColor=#005073;strokeColor=none;fontSize=14;" parent="59" vertex="1">
                    <mxGeometry x="7" width="60" height="60" as="geometry"/>
                </mxCell>
                <mxCell id="30" value="&lt;font style=&quot;font-size: 12px;&quot;&gt;Developer&lt;/font&gt;" style="text;strokeColor=none;fillColor=none;html=1;fontSize=24;fontStyle=1;verticalAlign=middle;align=center;" parent="59" vertex="1">
                    <mxGeometry y="59" width="70" height="10" as="geometry"/>
                </mxCell>
                <mxCell id="60" value="" style="group" parent="1" vertex="1" connectable="0">
                    <mxGeometry x="444" y="30" width="70" height="66" as="geometry"/>
                </mxCell>
                <mxCell id="17" value="&lt;font style=&quot;font-size: 12px;&quot;&gt;User&lt;/font&gt;" style="text;strokeColor=none;fillColor=none;html=1;fontSize=24;fontStyle=1;verticalAlign=middle;align=center;" parent="60" vertex="1">
                    <mxGeometry y="46" width="70" height="20" as="geometry"/>
                </mxCell>
                <mxCell id="27" value="" style="sketch=0;outlineConnect=0;fontColor=#232F3E;gradientColor=none;fillColor=#232F3D;strokeColor=none;dashed=0;verticalLabelPosition=bottom;verticalAlign=top;align=center;html=1;fontSize=12;fontStyle=0;aspect=fixed;pointerEvents=1;shape=mxgraph.aws4.user;" parent="60" vertex="1">
                    <mxGeometry x="10" width="50" height="50" as="geometry"/>
                </mxCell>
                <mxCell id="78" value="" style="endArrow=classic;startArrow=classic;html=1;fontSize=12;" parent="1" edge="1">
                    <mxGeometry width="50" height="50" relative="1" as="geometry">
                        <mxPoint x="74.58" y="280" as="sourcePoint"/>
                        <mxPoint x="74.58" y="220" as="targetPoint"/>
                    </mxGeometry>
                </mxCell>
                <mxCell id="79" value="" style="endArrow=classic;startArrow=classic;html=1;fontSize=12;" parent="1" edge="1">
                    <mxGeometry width="50" height="50" relative="1" as="geometry">
                        <mxPoint x="75" y="440" as="sourcePoint"/>
                        <mxPoint x="74.58000000000011" y="350" as="targetPoint"/>
                    </mxGeometry>
                </mxCell>
                <mxCell id="80" value="" style="endArrow=classic;startArrow=classic;html=1;fontSize=12;" parent="1" edge="1">
                    <mxGeometry width="50" height="50" relative="1" as="geometry">
                        <mxPoint x="75.32" y="590" as="sourcePoint"/>
                        <mxPoint x="74.5" y="525" as="targetPoint"/>
                    </mxGeometry>
                </mxCell>
                <mxCell id="84" value="" style="endArrow=classic;startArrow=classic;html=1;fontSize=12;" parent="1" edge="1">
                    <mxGeometry width="50" height="50" relative="1" as="geometry">
                        <mxPoint x="480" y="260" as="sourcePoint"/>
                        <mxPoint x="479.99999999999994" y="100" as="targetPoint"/>
                    </mxGeometry>
                </mxCell>
                <mxCell id="105" value="インフラ構成図(初期)" style="text;strokeColor=none;fillColor=none;html=1;fontSize=24;fontStyle=1;verticalAlign=middle;align=center;" vertex="1" parent="1">
                    <mxGeometry x="60" y="43" width="210" height="40" as="geometry"/>
                </mxCell>
            </root>
        </mxGraphModel>
    </diagram>
</mxfile>